<svg width="12" height="12" viewBox="0 0 12 12" fill="none" xmlns="http://www.w3.org/2000/svg">
<path d="M7.74999 5.41675H6.58333V3.08341C6.58333 2.9287 6.52187 2.78033 6.41247 2.67094C6.30308 2.56154 6.1547 2.50008 5.99999 2.50008C5.84528 2.50008 5.69691 2.56154 5.58751 2.67094C5.47812 2.78033 5.41666 2.9287 5.41666 3.08341V6.00008C5.41666 6.15479 5.47812 6.30316 5.58751 6.41256C5.69691 6.52196 5.84528 6.58341 5.99999 6.58341H7.74999C7.9047 6.58341 8.05307 6.52196 8.16247 6.41256C8.27187 6.30316 8.33333 6.15479 8.33333 6.00008C8.33333 5.84537 8.27187 5.697 8.16247 5.5876C8.05307 5.47821 7.9047 5.41675 7.74999 5.41675ZM5.99999 0.166748C4.84627 0.166748 3.71845 0.508867 2.75917 1.14984C1.79988 1.79082 1.05221 2.70186 0.610695 3.76776C0.169184 4.83366 0.0536645 6.00655 0.278745 7.13811C0.503825 8.26966 1.0594 9.30906 1.8752 10.1249C2.69101 10.9407 3.73041 11.4962 4.86197 11.7213C5.99352 11.9464 7.16641 11.8309 8.23231 11.3894C9.29821 10.9479 10.2093 10.2002 10.8502 9.24091C11.4912 8.28162 11.8333 7.15381 11.8333 6.00008C11.8333 5.23404 11.6824 4.47549 11.3893 3.76776C11.0961 3.06003 10.6665 2.41697 10.1248 1.87529C9.58311 1.33362 8.94005 0.903937 8.23231 0.610784C7.52458 0.317632 6.76604 0.166748 5.99999 0.166748V0.166748ZM5.99999 10.6667C5.07701 10.6667 4.17476 10.3931 3.40733 9.88027C2.6399 9.36749 2.04176 8.63866 1.68855 7.78594C1.33535 6.93322 1.24293 5.9949 1.42299 5.08966C1.60306 4.18442 2.04752 3.35289 2.70016 2.70025C3.35281 2.0476 4.18433 1.60315 5.08957 1.42308C5.99482 1.24302 6.93313 1.33543 7.78585 1.68864C8.63857 2.04185 9.3674 2.63999 9.88018 3.40742C10.393 4.17485 10.6667 5.0771 10.6667 6.00008C10.6667 7.23776 10.175 8.42474 9.29982 9.29991C8.42465 10.1751 7.23767 10.6667 5.99999 10.6667V10.6667Z" fill="#8C8B98"/>
</svg>
