<svg width="220" height="36" viewBox="0 0 220 36" fill="none" xmlns="http://www.w3.org/2000/svg">
<path d="M41.0043 23V12.8182H42.8487V21.4538H47.3331V23H41.0043ZM48.9944 23V15.3636H50.7941V23H48.9944ZM49.8992 14.2798C49.6142 14.2798 49.3689 14.1854 49.1634 13.9964C48.9579 13.8042 48.8552 13.5739 48.8552 13.3054C48.8552 13.0336 48.9579 12.8033 49.1634 12.6143C49.3689 12.4221 49.6142 12.326 49.8992 12.326C50.1876 12.326 50.4329 12.4221 50.635 12.6143C50.8405 12.8033 50.9433 13.0336 50.9433 13.3054C50.9433 13.5739 50.8405 13.8042 50.635 13.9964C50.4329 14.1854 50.1876 14.2798 49.8992 14.2798ZM56.598 15.3636V16.7557H52.2081V15.3636H56.598ZM53.2919 13.5341H55.0916V20.7031C55.0916 20.9451 55.1281 21.1307 55.201 21.2599C55.2772 21.3859 55.3766 21.4721 55.4993 21.5185C55.6219 21.5649 55.7578 21.5881 55.907 21.5881C56.0196 21.5881 56.1224 21.5798 56.2152 21.5632C56.3113 21.5466 56.3842 21.5317 56.4339 21.5185L56.7372 22.9254C56.6411 22.9586 56.5035 22.995 56.3246 23.0348C56.1489 23.0746 55.9335 23.0978 55.6783 23.1044C55.2275 23.1177 54.8215 23.0497 54.4602 22.9006C54.099 22.7481 53.8123 22.5128 53.6001 22.1946C53.3913 21.8764 53.2886 21.4787 53.2919 21.0014V13.5341ZM61.5418 23.1491C60.7762 23.1491 60.115 22.9901 59.5581 22.6719C59.0046 22.3504 58.5787 21.8963 58.2804 21.3097C57.9821 20.7197 57.833 20.0253 57.833 19.2266C57.833 18.4411 57.9821 17.7517 58.2804 17.1584C58.5821 16.5618 59.003 16.0978 59.5432 15.7663C60.0835 15.4316 60.7182 15.2642 61.4473 15.2642C61.918 15.2642 62.3621 15.3404 62.7797 15.4929C63.2007 15.642 63.5719 15.8741 63.8934 16.1889C64.2182 16.5038 64.4734 16.9048 64.659 17.392C64.8446 17.8759 64.9374 18.4527 64.9374 19.1222V19.674H58.6782V18.4609H63.2123C63.2089 18.1162 63.1344 17.8097 62.9885 17.5412C62.8427 17.2694 62.6389 17.0556 62.377 16.8999C62.1185 16.7441 61.8169 16.6662 61.4722 16.6662C61.1043 16.6662 60.7812 16.7557 60.5027 16.9347C60.2243 17.1103 60.0072 17.3423 59.8515 17.6307C59.699 17.9157 59.6211 18.2289 59.6178 18.5703V19.6293C59.6178 20.0734 59.699 20.4545 59.8614 20.7727C60.0238 21.0876 60.2508 21.3295 60.5425 21.4986C60.8342 21.6643 61.1756 21.7472 61.5667 21.7472C61.8285 21.7472 62.0655 21.7107 62.2776 21.6378C62.4897 21.5616 62.6737 21.4505 62.8294 21.3047C62.9852 21.1589 63.1029 20.9782 63.1824 20.7628L64.8628 20.9517C64.7568 21.3958 64.5546 21.7836 64.2563 22.1151C63.9613 22.4432 63.5835 22.6984 63.1228 22.8807C62.6621 23.0597 62.1351 23.1491 61.5418 23.1491ZM66.5005 23V21.8565L70.438 16.9197V16.8551H66.6298V15.3636H72.6404V16.5916L68.8919 21.4439V21.5085H72.7697V23H66.5005ZM78.5222 12.8182H79.9938L83.454 21.2699H83.5733L87.0335 12.8182H88.5051V23H87.3517V15.2642H87.2523L84.0705 23H82.9568L79.775 15.2642H79.6756V23H78.5222V12.8182ZM93.2053 23.179C92.7214 23.179 92.2823 23.0878 91.8878 22.9055C91.4934 22.7199 91.1802 22.4531 90.9482 22.1051C90.7162 21.7538 90.6002 21.3295 90.6002 20.8324C90.6002 20.3949 90.6864 20.0402 90.8587 19.7685C91.0311 19.4934 91.2614 19.2779 91.5498 19.1222C91.8381 18.9664 92.1563 18.8504 92.5043 18.7741C92.8557 18.6946 93.2086 18.6316 93.5633 18.5852C94.0273 18.5256 94.4035 18.4808 94.6918 18.451C94.9835 18.4179 95.1956 18.3632 95.3282 18.2869C95.4641 18.2107 95.532 18.0781 95.532 17.8892V17.8494C95.532 17.3589 95.3978 16.9777 95.1293 16.706C94.8642 16.4342 94.4615 16.2983 93.9212 16.2983C93.3611 16.2983 92.9219 16.4209 92.6038 16.6662C92.2856 16.9115 92.0619 17.1733 91.9326 17.4517L90.819 17.054C91.0178 16.59 91.283 16.2287 91.6144 15.9702C91.9492 15.7083 92.3137 15.526 92.7082 15.4233C93.1059 15.3172 93.497 15.2642 93.8815 15.2642C94.1267 15.2642 94.4084 15.294 94.7266 15.3537C95.0481 15.41 95.358 15.5277 95.6563 15.7067C95.9579 15.8857 96.2082 16.1558 96.407 16.517C96.6059 16.8783 96.7053 17.3622 96.7053 17.9688V23H95.532V21.9659H95.4724C95.3928 22.1316 95.2602 22.3089 95.0746 22.4979C94.889 22.6868 94.6421 22.8475 94.3339 22.9801C94.0256 23.1127 93.6494 23.179 93.2053 23.179ZM93.3843 22.125C93.8483 22.125 94.2394 22.0339 94.5576 21.8516C94.8791 21.6693 95.121 21.4339 95.2834 21.1456C95.4492 20.8572 95.532 20.554 95.532 20.2358V19.1619C95.4823 19.2216 95.3729 19.2763 95.2039 19.326C95.0382 19.3724 94.8459 19.4138 94.6272 19.4503C94.4118 19.4834 94.2013 19.5133 93.9958 19.5398C93.7936 19.563 93.6296 19.5829 93.5036 19.5994C93.1987 19.6392 92.9137 19.7038 92.6485 19.7933C92.3867 19.8795 92.1745 20.0104 92.0121 20.1861C91.853 20.3584 91.7735 20.5937 91.7735 20.892C91.7735 21.2997 91.9243 21.608 92.2259 21.8168C92.5308 22.0223 92.917 22.125 93.3843 22.125ZM100.16 18.4062V23H98.9868V15.3636H100.12V16.5568H100.22C100.399 16.169 100.671 15.8575 101.035 15.6222C101.4 15.3835 101.87 15.2642 102.447 15.2642C102.964 15.2642 103.417 15.3703 103.804 15.5824C104.192 15.7912 104.494 16.1094 104.709 16.5369C104.925 16.9612 105.032 17.4981 105.032 18.1477V23H103.859V18.2273C103.859 17.6274 103.703 17.16 103.392 16.8253C103.08 16.4872 102.653 16.3182 102.109 16.3182C101.734 16.3182 101.4 16.3994 101.105 16.5618C100.813 16.7242 100.583 16.9612 100.414 17.2727C100.245 17.5843 100.16 17.9621 100.16 18.4062ZM109.563 23.179C109.08 23.179 108.64 23.0878 108.246 22.9055C107.852 22.7199 107.538 22.4531 107.306 22.1051C107.074 21.7538 106.958 21.3295 106.958 20.8324C106.958 20.3949 107.045 20.0402 107.217 19.7685C107.389 19.4934 107.62 19.2779 107.908 19.1222C108.196 18.9664 108.514 18.8504 108.862 18.7741C109.214 18.6946 109.567 18.6316 109.921 18.5852C110.385 18.5256 110.762 18.4808 111.05 18.451C111.342 18.4179 111.554 18.3632 111.686 18.2869C111.822 18.2107 111.89 18.0781 111.89 17.8892V17.8494C111.89 17.3589 111.756 16.9777 111.487 16.706C111.222 16.4342 110.82 16.2983 110.279 16.2983C109.719 16.2983 109.28 16.4209 108.962 16.6662C108.644 16.9115 108.42 17.1733 108.291 17.4517L107.177 17.054C107.376 16.59 107.641 16.2287 107.973 15.9702C108.307 15.7083 108.672 15.526 109.066 15.4233C109.464 15.3172 109.855 15.2642 110.24 15.2642C110.485 15.2642 110.767 15.294 111.085 15.3537C111.406 15.41 111.716 15.5277 112.014 15.7067C112.316 15.8857 112.566 16.1558 112.765 16.517C112.964 16.8783 113.063 17.3622 113.063 17.9688V23H111.89V21.9659H111.83C111.751 22.1316 111.618 22.3089 111.433 22.4979C111.247 22.6868 111 22.8475 110.692 22.9801C110.384 23.1127 110.008 23.179 109.563 23.179ZM109.742 22.125C110.206 22.125 110.598 22.0339 110.916 21.8516C111.237 21.6693 111.479 21.4339 111.642 21.1456C111.807 20.8572 111.89 20.554 111.89 20.2358V19.1619C111.84 19.2216 111.731 19.2763 111.562 19.326C111.396 19.3724 111.204 19.4138 110.985 19.4503C110.77 19.4834 110.559 19.5133 110.354 19.5398C110.152 19.563 109.988 19.5829 109.862 19.5994C109.557 19.6392 109.272 19.7038 109.007 19.7933C108.745 19.8795 108.533 20.0104 108.37 20.1861C108.211 20.3584 108.132 20.5937 108.132 20.892C108.132 21.2997 108.282 21.608 108.584 21.8168C108.889 22.0223 109.275 22.125 109.742 22.125ZM118.427 26.0227C117.861 26.0227 117.373 25.9498 116.966 25.804C116.558 25.6615 116.218 25.4725 115.947 25.2372C115.678 25.0052 115.464 24.7566 115.305 24.4915L116.24 23.8352C116.346 23.9744 116.48 24.1335 116.643 24.3125C116.805 24.4948 117.027 24.6522 117.309 24.7848C117.594 24.9207 117.967 24.9886 118.427 24.9886C119.044 24.9886 119.553 24.8395 119.954 24.5412C120.355 24.2429 120.555 23.7756 120.555 23.1392V21.5881H120.456C120.37 21.7273 120.247 21.8996 120.088 22.1051C119.932 22.3073 119.707 22.4879 119.412 22.647C119.12 22.8028 118.726 22.8807 118.228 22.8807C117.612 22.8807 117.059 22.7348 116.568 22.4432C116.081 22.1515 115.695 21.7273 115.41 21.1705C115.128 20.6136 114.987 19.9375 114.987 19.142C114.987 18.3598 115.125 17.6787 115.4 17.0987C115.675 16.5154 116.058 16.0646 116.548 15.7464C117.039 15.425 117.605 15.2642 118.248 15.2642C118.746 15.2642 119.14 15.3471 119.432 15.5128C119.727 15.6752 119.952 15.8608 120.108 16.0696C120.267 16.2751 120.389 16.4441 120.476 16.5767H120.595V15.3636H121.728V23.2188C121.728 23.875 121.579 24.4086 121.281 24.8196C120.986 25.2339 120.588 25.5372 120.088 25.7294C119.591 25.925 119.037 26.0227 118.427 26.0227ZM118.388 21.8267C118.858 21.8267 119.256 21.719 119.581 21.5036C119.906 21.2881 120.152 20.9782 120.322 20.5739C120.491 20.1695 120.575 19.6856 120.575 19.1222C120.575 18.572 120.492 18.0864 120.326 17.6655C120.161 17.2446 119.916 16.9148 119.591 16.6761C119.266 16.4375 118.865 16.3182 118.388 16.3182C117.89 16.3182 117.476 16.4441 117.145 16.696C116.817 16.9479 116.57 17.286 116.404 17.7102C116.242 18.1345 116.16 18.6051 116.16 19.1222C116.16 19.6525 116.243 20.1214 116.409 20.5291C116.578 20.9335 116.826 21.2517 117.155 21.4837C117.486 21.7124 117.897 21.8267 118.388 21.8267ZM127.218 23.1591C126.482 23.1591 125.847 22.9967 125.314 22.6719C124.783 22.3438 124.374 21.8864 124.086 21.2997C123.801 20.7098 123.658 20.0237 123.658 19.2415C123.658 18.4593 123.801 17.7699 124.086 17.1733C124.374 16.5734 124.775 16.1061 125.289 15.7713C125.806 15.4332 126.409 15.2642 127.099 15.2642C127.496 15.2642 127.889 15.3305 128.277 15.4631C128.665 15.5956 129.018 15.8111 129.336 16.1094C129.654 16.4044 129.908 16.7955 130.096 17.2827C130.285 17.7699 130.38 18.3698 130.38 19.0824V19.5795H124.493V18.5653H129.187C129.187 18.1345 129.1 17.75 128.928 17.4119C128.759 17.0739 128.517 16.8071 128.202 16.6115C127.891 16.416 127.523 16.3182 127.099 16.3182C126.631 16.3182 126.227 16.4342 125.886 16.6662C125.547 16.8949 125.287 17.1932 125.105 17.5611C124.923 17.929 124.832 18.3234 124.832 18.7443V19.4205C124.832 19.9972 124.931 20.486 125.13 20.8871C125.332 21.2848 125.612 21.5881 125.97 21.7969C126.328 22.0024 126.744 22.1051 127.218 22.1051C127.526 22.1051 127.805 22.062 128.053 21.9759C128.305 21.8864 128.522 21.7538 128.704 21.5781C128.887 21.3991 129.028 21.1771 129.127 20.9119L130.261 21.2301C130.141 21.6146 129.941 21.9527 129.659 22.2443C129.377 22.5327 129.029 22.758 128.615 22.9205C128.201 23.0795 127.735 23.1591 127.218 23.1591ZM132.305 23V15.3636H133.438V16.5568H133.538C133.697 16.1491 133.954 15.8326 134.308 15.6072C134.663 15.3786 135.089 15.2642 135.586 15.2642C136.09 15.2642 136.509 15.3786 136.844 15.6072C137.182 15.8326 137.445 16.1491 137.634 16.5568H137.714C137.909 16.1624 138.203 15.8492 138.594 15.6172C138.985 15.3819 139.454 15.2642 140.001 15.2642C140.683 15.2642 141.242 15.478 141.676 15.9055C142.11 16.3298 142.327 16.991 142.327 17.8892V23H141.154V17.8892C141.154 17.3258 141 16.9231 140.692 16.6811C140.383 16.4392 140.021 16.3182 139.603 16.3182C139.066 16.3182 138.65 16.4806 138.355 16.8054C138.06 17.1269 137.913 17.5346 137.913 18.0284V23H136.719V17.7699C136.719 17.3357 136.579 16.986 136.297 16.7209C136.015 16.4524 135.652 16.3182 135.208 16.3182C134.903 16.3182 134.618 16.3994 134.353 16.5618C134.091 16.7242 133.879 16.9496 133.717 17.2379C133.557 17.523 133.478 17.8527 133.478 18.2273V23H132.305ZM147.814 23.1591C147.079 23.1591 146.444 22.9967 145.91 22.6719C145.38 22.3438 144.971 21.8864 144.682 21.2997C144.397 20.7098 144.255 20.0237 144.255 19.2415C144.255 18.4593 144.397 17.7699 144.682 17.1733C144.971 16.5734 145.372 16.1061 145.885 15.7713C146.402 15.4332 147.006 15.2642 147.695 15.2642C148.093 15.2642 148.485 15.3305 148.873 15.4631C149.261 15.5956 149.614 15.8111 149.932 16.1094C150.25 16.4044 150.504 16.7955 150.693 17.2827C150.882 17.7699 150.976 18.3698 150.976 19.0824V19.5795H145.09V18.5653H149.783C149.783 18.1345 149.697 17.75 149.525 17.4119C149.356 17.0739 149.114 16.8071 148.799 16.6115C148.487 16.416 148.119 16.3182 147.695 16.3182C147.228 16.3182 146.823 16.4342 146.482 16.6662C146.144 16.8949 145.884 17.1932 145.701 17.5611C145.519 17.929 145.428 18.3234 145.428 18.7443V19.4205C145.428 19.9972 145.527 20.486 145.726 20.8871C145.928 21.2848 146.208 21.5881 146.566 21.7969C146.924 22.0024 147.34 22.1051 147.814 22.1051C148.123 22.1051 148.401 22.062 148.65 21.9759C148.901 21.8864 149.119 21.7538 149.301 21.5781C149.483 21.3991 149.624 21.1771 149.723 20.9119L150.857 21.2301C150.738 21.6146 150.537 21.9527 150.255 22.2443C149.974 22.5327 149.626 22.758 149.211 22.9205C148.797 23.0795 148.331 23.1591 147.814 23.1591ZM154.074 18.4062V23H152.901V15.3636H154.035V16.5568H154.134C154.313 16.169 154.585 15.8575 154.949 15.6222C155.314 15.3835 155.785 15.2642 156.361 15.2642C156.878 15.2642 157.331 15.3703 157.719 15.5824C158.106 15.7912 158.408 16.1094 158.623 16.5369C158.839 16.9612 158.947 17.4981 158.947 18.1477V23H157.773V18.2273C157.773 17.6274 157.617 17.16 157.306 16.8253C156.994 16.4872 156.567 16.3182 156.023 16.3182C155.649 16.3182 155.314 16.3994 155.019 16.5618C154.727 16.7242 154.497 16.9612 154.328 17.2727C154.159 17.5843 154.074 17.9621 154.074 18.4062ZM164.552 15.3636V16.358H160.594V15.3636H164.552ZM161.748 13.5341H162.921V20.8125C162.921 21.1439 162.969 21.3925 163.065 21.5582C163.164 21.7206 163.29 21.83 163.443 21.8864C163.599 21.9394 163.763 21.9659 163.935 21.9659C164.064 21.9659 164.17 21.9593 164.253 21.946C164.336 21.9295 164.402 21.9162 164.452 21.9062L164.691 22.9602C164.611 22.9901 164.5 23.0199 164.358 23.0497C164.215 23.0829 164.034 23.0994 163.816 23.0994C163.484 23.0994 163.159 23.0282 162.841 22.8857C162.526 22.7431 162.265 22.526 162.056 22.2344C161.85 21.9427 161.748 21.5748 161.748 21.1307V13.5341ZM176.261 15.3636C176.202 14.8598 175.96 14.4688 175.535 14.1903C175.111 13.9119 174.591 13.7727 173.974 13.7727C173.524 13.7727 173.129 13.8456 172.791 13.9915C172.456 14.1373 172.194 14.3378 172.006 14.593C171.82 14.8482 171.727 15.1383 171.727 15.4631C171.727 15.7348 171.792 15.9685 171.921 16.1641C172.054 16.3563 172.223 16.517 172.428 16.6463C172.634 16.7723 172.849 16.8767 173.074 16.9595C173.3 17.0391 173.507 17.1037 173.696 17.1534L174.73 17.4318C174.995 17.5014 175.29 17.5975 175.615 17.7202C175.943 17.8428 176.256 18.0102 176.555 18.2223C176.856 18.4311 177.105 18.6996 177.3 19.0277C177.496 19.3558 177.594 19.7585 177.594 20.2358C177.594 20.786 177.449 21.2831 177.161 21.7273C176.876 22.1714 176.458 22.5244 175.908 22.7862C175.361 23.0481 174.697 23.179 173.915 23.179C173.185 23.179 172.554 23.0613 172.02 22.826C171.49 22.5907 171.073 22.2625 170.768 21.8416C170.466 21.4207 170.295 20.9318 170.256 20.375H171.528C171.561 20.7595 171.691 21.0777 171.916 21.3295C172.145 21.5781 172.433 21.7637 172.781 21.8864C173.132 22.0057 173.51 22.0653 173.915 22.0653C174.385 22.0653 174.808 21.9891 175.182 21.8366C175.557 21.6809 175.854 21.4654 176.072 21.1903C176.291 20.9119 176.4 20.5871 176.4 20.2159C176.4 19.8778 176.306 19.6027 176.117 19.3906C175.928 19.1785 175.68 19.0062 175.371 18.8736C175.063 18.741 174.73 18.625 174.372 18.5256L173.119 18.1676C172.324 17.9389 171.694 17.6125 171.23 17.1882C170.766 16.764 170.534 16.2088 170.534 15.5227C170.534 14.9527 170.688 14.4555 170.996 14.0312C171.308 13.6037 171.725 13.2723 172.249 13.0369C172.776 12.7983 173.364 12.679 174.014 12.679C174.67 12.679 175.254 12.7966 175.764 13.032C176.274 13.264 176.679 13.5821 176.977 13.9865C177.279 14.3909 177.438 14.8499 177.454 15.3636H176.261ZM180.357 25.8636C180.158 25.8636 179.981 25.8471 179.825 25.8139C179.67 25.7841 179.562 25.7543 179.502 25.7244L179.801 24.6903C180.086 24.7633 180.337 24.7898 180.556 24.7699C180.775 24.75 180.969 24.6522 181.138 24.4766C181.31 24.3042 181.468 24.0241 181.61 23.6364L181.829 23.0398L179.005 15.3636H180.278L182.386 21.4489H182.465L184.573 15.3636H185.846L182.605 24.1136C182.459 24.508 182.278 24.8345 182.063 25.093C181.847 25.3549 181.597 25.5488 181.312 25.6747C181.03 25.8007 180.712 25.8636 180.357 25.8636ZM192.944 17.0739L191.89 17.3722C191.823 17.1965 191.726 17.0258 191.596 16.8601C191.47 16.6911 191.298 16.5518 191.079 16.4425C190.861 16.3331 190.581 16.2784 190.239 16.2784C189.772 16.2784 189.382 16.3861 189.071 16.6016C188.763 16.8137 188.609 17.0838 188.609 17.4119C188.609 17.7036 188.715 17.9339 188.927 18.103C189.139 18.272 189.47 18.4129 189.921 18.5256L191.055 18.804C191.737 18.9697 192.246 19.2232 192.581 19.5646C192.916 19.9027 193.083 20.3385 193.083 20.8722C193.083 21.3097 192.957 21.7008 192.705 22.0455C192.457 22.3902 192.109 22.6619 191.661 22.8608C191.214 23.0597 190.693 23.1591 190.1 23.1591C189.321 23.1591 188.676 22.9901 188.166 22.652C187.656 22.3139 187.332 21.8201 187.197 21.1705L188.31 20.892C188.416 21.303 188.617 21.6113 188.912 21.8168C189.21 22.0223 189.6 22.125 190.08 22.125C190.627 22.125 191.061 22.009 191.383 21.777C191.707 21.5417 191.87 21.2599 191.87 20.9318C191.87 20.6667 191.777 20.4446 191.591 20.2656C191.406 20.0833 191.121 19.9474 190.736 19.858L189.464 19.5597C188.764 19.3939 188.251 19.1371 187.922 18.7891C187.598 18.4377 187.435 17.9986 187.435 17.4716C187.435 17.0407 187.556 16.6596 187.798 16.3281C188.043 15.9967 188.377 15.7365 188.797 15.5476C189.222 15.3587 189.702 15.2642 190.239 15.2642C190.995 15.2642 191.588 15.4299 192.019 15.7614C192.453 16.0928 192.761 16.5303 192.944 17.0739ZM198.31 15.3636V16.358H194.353V15.3636H198.31ZM195.506 13.5341H196.679V20.8125C196.679 21.1439 196.728 21.3925 196.824 21.5582C196.923 21.7206 197.049 21.83 197.201 21.8864C197.357 21.9394 197.521 21.9659 197.694 21.9659C197.823 21.9659 197.929 21.9593 198.012 21.946C198.095 21.9295 198.161 21.9162 198.211 21.9062L198.449 22.9602C198.37 22.9901 198.259 23.0199 198.116 23.0497C197.974 23.0829 197.793 23.0994 197.574 23.0994C197.243 23.0994 196.918 23.0282 196.6 22.8857C196.285 22.7431 196.023 22.526 195.814 22.2344C195.609 21.9427 195.506 21.5748 195.506 21.1307V13.5341ZM203.335 23.1591C202.599 23.1591 201.964 22.9967 201.431 22.6719C200.9 22.3438 200.491 21.8864 200.203 21.2997C199.918 20.7098 199.775 20.0237 199.775 19.2415C199.775 18.4593 199.918 17.7699 200.203 17.1733C200.491 16.5734 200.892 16.1061 201.406 15.7713C201.923 15.4332 202.526 15.2642 203.215 15.2642C203.613 15.2642 204.006 15.3305 204.394 15.4631C204.781 15.5956 205.134 15.8111 205.453 16.1094C205.771 16.4044 206.024 16.7955 206.213 17.2827C206.402 17.7699 206.497 18.3698 206.497 19.0824V19.5795H200.61V18.5653H205.303C205.303 18.1345 205.217 17.75 205.045 17.4119C204.876 17.0739 204.634 16.8071 204.319 16.6115C204.008 16.416 203.64 16.3182 203.215 16.3182C202.748 16.3182 202.344 16.4342 202.002 16.6662C201.664 16.8949 201.404 17.1932 201.222 17.5611C201.039 17.929 200.948 18.3234 200.948 18.7443V19.4205C200.948 19.9972 201.048 20.486 201.247 20.8871C201.449 21.2848 201.729 21.5881 202.087 21.7969C202.445 22.0024 202.861 22.1051 203.335 22.1051C203.643 22.1051 203.921 22.062 204.17 21.9759C204.422 21.8864 204.639 21.7538 204.821 21.5781C205.004 21.3991 205.144 21.1771 205.244 20.9119L206.377 21.2301C206.258 21.6146 206.057 21.9527 205.776 22.2443C205.494 22.5327 205.146 22.758 204.732 22.9205C204.317 23.0795 203.852 23.1591 203.335 23.1591ZM208.421 23V15.3636H209.555V16.5568H209.654C209.813 16.1491 210.07 15.8326 210.425 15.6072C210.78 15.3786 211.206 15.2642 211.703 15.2642C212.206 15.2642 212.626 15.3786 212.961 15.6072C213.299 15.8326 213.562 16.1491 213.751 16.5568H213.831C214.026 16.1624 214.319 15.8492 214.711 15.6172C215.102 15.3819 215.571 15.2642 216.117 15.2642C216.8 15.2642 217.359 15.478 217.793 15.9055C218.227 16.3298 218.444 16.991 218.444 17.8892V23H217.271V17.8892C217.271 17.3258 217.117 16.9231 216.809 16.6811C216.5 16.4392 216.137 16.3182 215.72 16.3182C215.183 16.3182 214.767 16.4806 214.472 16.8054C214.177 17.1269 214.029 17.5346 214.029 18.0284V23H212.836V17.7699C212.836 17.3357 212.695 16.986 212.414 16.7209C212.132 16.4524 211.769 16.3182 211.325 16.3182C211.02 16.3182 210.735 16.3994 210.47 16.5618C210.208 16.7242 209.996 16.9496 209.833 17.2379C209.674 17.523 209.595 17.8527 209.595 18.2273V23H208.421Z" fill="black"/>
<path d="M6.97895 9.57722C6.34649 10.1375 5.67349 10.4134 5.4758 10.1929C5.27755 9.97289 5.62907 9.33895 6.26098 8.77955C6.89369 8.22021 7.56682 7.94353 7.76494 8.16389C7.96288 8.38407 7.61135 9.01855 6.97895 9.57722ZM13.2338 9.25566C16.6845 6.62896 15.88 4.23028 15.88 4.23028C14.9598 4.68689 14.7292 4.11623 14.7292 4.11623C15.1891 0.804467 13.2336 0 13.2336 0C14.1535 1.70842 4.37517 6.39995 3.05039 7.3141C1.72576 8.22813 3.05039 9.59816 3.05039 9.59816L3.10976 10.3976C-0.916121 12.1108 0.119517 13.8237 0.119517 13.8237L1.49899 14.509V15.4225L3.05396 17.7768C3.04327 17.6811 3.02435 17.5884 3.02435 17.4899C3.02435 16.0596 4.19188 14.9016 5.63222 14.9016C7.07218 14.9016 8.2394 16.0598 8.2394 17.4899C8.2394 18.9186 7.07218 20.0785 5.63222 20.0785C5.15992 20.0785 4.72272 19.9436 4.34104 19.7262L6.1007 22.3895C6.1007 22.3895 8.05636 19.7621 9.66717 18.9634C11.2782 18.1645 13.2733 16.8081 13.2733 16.8081L15.0739 15.1944C15.8792 7.08637 9.78274 11.8819 13.2338 9.25566Z" fill="#FFB618"/>
<path d="M12.8134 18.763C12.8134 18.763 13.3885 21.3327 15.1718 22.0179C16.9548 22.7031 18.2493 23.8862 17.7315 27.0209C17.7315 27.0209 24.7711 24.0604 24.3857 21.8787C24.0671 20.0746 25.066 17.3216 16.4141 15.9364C16.9965 15.0056 11.9322 18.6756 12.8134 18.763Z" fill="#FFB618"/>
<path d="M11.9066 19.2767C11.9066 19.2767 12.1225 21.4181 13.3309 22.3603C14.5392 23.3027 18.6577 24.8971 16.4143 27.6381C14.1706 30.3792 10.6566 32.8772 11.2603 35.6276C11.8643 38.378 0.861971 25.1868 11.9066 19.2767Z" fill="#FFB618"/>
<path d="M5.65113 23.2167C5.65113 23.2167 4.18405 28.3137 7.89434 33.5386C7.89434 33.5386 2.9743 30.889 1.94085 26.6429C0.905487 22.3888 3.32156 18.1633 5.65113 23.2167Z" fill="#FFB618"/>
<path d="M14.5388 9.68371C14.5388 9.68371 27.5678 7.2853 25.8423 19.277C25.8423 19.277 20.4923 13.881 16.0919 15.0801C16.0919 15.0801 16.5233 11.3114 14.5388 9.68371Z" fill="#FFB618"/>
<path d="M15.1716 8.51829C15.1716 8.51829 16.8973 7.19934 17.2427 4.45837C17.2427 4.45837 23.225 6.51481 25.0659 10.3972C25.0659 10.3972 18.853 7.32459 15.1716 8.51829Z" fill="#FFB618"/>
</svg>
