<svg width="12" height="12" viewBox="0 0 12 12" fill="none" xmlns="http://www.w3.org/2000/svg">
<path d="M5.99996 0.166748C4.84624 0.166748 3.71842 0.508867 2.75914 1.14984C1.79985 1.79082 1.05218 2.70186 0.610665 3.76776C0.169153 4.83366 0.053634 6.00655 0.278714 7.13811C0.503795 8.26966 1.05937 9.30906 1.87517 10.1249C2.69098 10.9407 3.73038 11.4962 4.86194 11.7213C5.99349 11.9464 7.16638 11.8309 8.23228 11.3894C9.29818 10.9479 10.2092 10.2002 10.8502 9.24091C11.4912 8.28162 11.8333 7.15381 11.8333 6.00008C11.8333 5.23404 11.6824 4.47549 11.3893 3.76776C11.0961 3.06003 10.6664 2.41697 10.1248 1.87529C9.58308 1.33362 8.94001 0.903937 8.23228 0.610784C7.52455 0.317632 6.76601 0.166748 5.99996 0.166748V0.166748ZM5.99996 10.6667C5.07698 10.6667 4.17473 10.3931 3.4073 9.88027C2.63987 9.36749 2.04173 8.63866 1.68852 7.78594C1.33532 6.93322 1.2429 5.9949 1.42296 5.08966C1.60303 4.18442 2.04749 3.35289 2.70013 2.70025C3.35278 2.0476 4.1843 1.60315 5.08954 1.42308C5.99479 1.24302 6.9331 1.33543 7.78582 1.68864C8.63854 2.04185 9.36737 2.63999 9.88015 3.40742C10.3929 4.17485 10.6666 5.0771 10.6666 6.00008C10.6666 7.23776 10.175 8.42474 9.29979 9.29991C8.42462 10.1751 7.23764 10.6667 5.99996 10.6667V10.6667ZM8.3333 5.41675H6.5833V3.66675C6.5833 3.51204 6.52184 3.36367 6.41244 3.25427C6.30304 3.14487 6.15467 3.08341 5.99996 3.08341C5.84525 3.08341 5.69688 3.14487 5.58748 3.25427C5.47809 3.36367 5.41663 3.51204 5.41663 3.66675V5.41675H3.66663C3.51192 5.41675 3.36355 5.47821 3.25415 5.5876C3.14475 5.697 3.0833 5.84537 3.0833 6.00008C3.0833 6.15479 3.14475 6.30316 3.25415 6.41256C3.36355 6.52196 3.51192 6.58341 3.66663 6.58341H5.41663V8.33341C5.41663 8.48812 5.47809 8.6365 5.58748 8.74589C5.69688 8.85529 5.84525 8.91675 5.99996 8.91675C6.15467 8.91675 6.30304 8.85529 6.41244 8.74589C6.52184 8.6365 6.5833 8.48812 6.5833 8.33341V6.58341H8.3333C8.488 6.58341 8.63638 6.52196 8.74577 6.41256C8.85517 6.30316 8.91663 6.15479 8.91663 6.00008C8.91663 5.84537 8.85517 5.697 8.74577 5.5876C8.63638 5.47821 8.488 5.41675 8.3333 5.41675Z" fill="#43A047"/>
</svg>
