<svg width="18" height="18" viewBox="0 0 18 18" fill="none" xmlns="http://www.w3.org/2000/svg">
<path d="M17.0916 15.9083L13.9999 12.8417C15.2 11.3454 15.7812 9.44609 15.6239 7.53443C15.4667 5.62276 14.583 3.844 13.1545 2.56388C11.7261 1.28377 9.86143 0.599604 7.94402 0.652071C6.02662 0.704538 4.20219 1.48965 2.84587 2.84596C1.48956 4.20228 0.704446 6.02671 0.651979 7.94411C0.599512 9.86152 1.28368 11.7262 2.56379 13.1546C3.84391 14.5831 5.62267 15.4668 7.53434 15.624C9.446 15.7813 11.3453 15.2001 12.8416 14L15.9083 17.0667C15.9857 17.1448 16.0779 17.2068 16.1794 17.2491C16.281 17.2914 16.3899 17.3132 16.4999 17.3132C16.6099 17.3132 16.7189 17.2914 16.8204 17.2491C16.9219 17.2068 17.0141 17.1448 17.0916 17.0667C17.2418 16.9113 17.3257 16.7036 17.3257 16.4875C17.3257 16.2714 17.2418 16.0637 17.0916 15.9083ZM8.16659 14C7.01286 14 5.88505 13.6579 4.92576 13.0169C3.96647 12.3759 3.2188 11.4649 2.77729 10.399C2.33578 9.3331 2.22026 8.16021 2.44534 7.02865C2.67042 5.8971 3.22599 4.8577 4.0418 4.04189C4.8576 3.22608 5.897 2.67051 7.02856 2.44543C8.16012 2.22035 9.333 2.33587 10.3989 2.77738C11.4648 3.21889 12.3759 3.96657 13.0168 4.92585C13.6578 5.88514 13.9999 7.01295 13.9999 8.16668C13.9999 9.71378 13.3853 11.1975 12.2914 12.2915C11.1974 13.3854 9.71368 14 8.16659 14Z" fill="#8C8B98"/>
</svg>
